<svg xmlns="http://www.w3.org/2000/svg" id="Layer_1" viewBox="0 0 652.7 652.7"><defs><style>.st0{fill:#fff}</style></defs><path d="m495.4 532.8.4-.2a.2.2 0 0 0-.4.2" class="st0"/><path d="m627.7 348.9-2-6.1q-.4-1-1.4-1.4l-3.7-1.5H613c-2.8.2-5.1.2-7.7 2.6q-1 1-2.3 1.7-.3 0-.3.3a21 21 0 0 0-2.3 9.4l.4 16.6q-.2 1.4.4 3.2l.1.7v5.4q-.2 2.3.3 4.3v5.8l-.1 1.9-1.4 60.8a194 194 0 0 1-.7 16.8q0 6.4-.2 12.7v7q0 1.7-.4 3.4l-.1 1.8q.1 2.4-.2 4.8v4.3l-.1 1v1a8 8 0 0 0 0 3.5q0 .2 0 .4 0 .6-.2 1v2.5l-.2 1.9.2 6.2q.3 2.3.2 4.4l-.2 3.8-.2 9.9a98 98 0 0 1-1 17.3v1.2q.2.6.3 1.3 0 1.5 0 3.2v3.3l-.3 3.3q0 .6-.3 1v1.4l-.2.3q0 1.5-.5 2.8-.2.4-.5 0-.4-.7-.6-1.7 0-.2-.2-.3c-.8-.7-1.1-2-1.4-2.9l-.8-1.7a50 50 0 0 1-3-7l-1.5-2.2-.1-.3q-.3-1.8-1.2-3.5l-.1-.3q-.7-3-2.4-6.9l-6.7-16.2-2-4.3-1.5-4.6-.5-1-21-67.5-.3-2.2-.1-.3-2.3-9.2-1.2-3.5-.2-.6a35 35 0 0 0-2.8-9.3v-.2l-.1-2-.1-.4q-.5-.6-.5-1.6l-3.4-11.3-.4-2.2-6.6-27-.1-.5v-.7a121 121 0 0 0-11.7-31.4l-11.8.6q-6.5.6-12.9 1.7-1 5.3-2.7 10.4l1 1q.7 1 1.4 1.8l2.2 2.7q.1 2-.4 6.8l-.4 18.2.5 6.3c.3 2.2 0 4.4 0 6.6l.2 32.5v.6l-.2 49.7v.2l-.6 2.6a11 11 0 0 1-.4 3.8v3l.3 2.1-.7 30.8-.1.9c-.5 1.6-.3 3.6-.3 4.8v3l-.3 7.5a62 62 0 0 1-.2 8.4l-.2 5-.3 4.3v.5l-.3 3.8q0 4.1.3 8.2l-.2 3.6-.3 7.8v.2q.3 4.3.2 5.8a286 286 0 0 0 0 20v.4q0 2.7-.2 4.8 0 0-.2.3a23 23 0 0 0-2 10v1.2l.2 1.3q.1 1 .7 2l.2.6q.4.8 1 1.3.6.8 1.4 1.2l5 .6a28 28 0 0 0 10.7-3.3q.3-.2.2-.3l3.9-7v-7l.8-6.4-.6-22.4-.2-.9q-.2-3.4 0-6.8l-.2-3-.7-26 2.2-40.5q.3-2.5.2-4.9v-2.9q-.6-3-.3-6.2.3-1.7.3-3.5-.1-1.8.4-3.5l.1-.6-.2-8.8v-.1q.5-.7.3-3.7 0-1.8.8-6.7l.2-14.5.2-1.6.6-11.8q0-.3.2-.4c1.4-1.2 2.3-1 3.9-.1l4 2.2q.9 1.2 1.4 2.8l3.4 10 .3.5 5.8 15.1c1.6 3 2.5 6.3 3.7 9.1a142 142 0 0 1 4 10.9q.2 0 .3.4 1.2 2.7 2 5.6l1.6 4.4 1.9 4.4.2.8q.5 2.1 1.4 4l16.6 46 1.8 5.4v.1q.6 1.2 1 2.4l20 55.3q2.3 4.6 7.2 6 8 .9 15.9 1.4.8 0 1-.8 0-.7.2-1.4l2.4-16.6v-.3l.2-1 .1-2.4c0-6-.4-11.8 0-17.7v-.1l-.4-6-.8-17.8v-.6l.4-1.4v-.8l-.4-3.1v-1.2c.2-4 .4-6.7 0-9.3q-.2-.9-.1-2.1l-.1-3.2c-.1-1.2.2-2.5.1-3.8v-1.7q-.2-2 .4-13.4V524q0-2.7.2-5.2l.3-5.6.1-6q-.1-2.1.4-3.6c-.2-1.9 0-3.8-.2-5.6l.1-1.3q0-1.5.2-3v-2.8q.2-.5.1-.9-.4-4.8-.2-8.5.3-4.1.2-5.5l2.2-87.6.1-5v-.9l.1-2 .2-3.7q.2-3.2.7-6.7l1-6.8q.6-4 1.7-8.1.7-3.2-.4-6.3M52.3 166.3l-.4-4.3-.2-6.3q0-4.5.4-8.9l-.1-4.7-.2-4.8q0-5.4-.4-10.8l-.2-11q-.4-4.3-.4-8.5c.1-2.2.4-5 .1-7.2q-.4-3.4-.4-5 .4-7.4-.2-14.8a51 51 0 0 1 0-7.7v-.5q-.5-3.8-.7-7.7-.5-3.8-.6-7.9c0-2-.5-3.8-.4-6l-1.3-21-1.7-3.1c-1.7-3-3-6-4.7-8.7q-2-.9-3.6-1-2-.3-4.4.5-1 .8-2 1.9l.1.5-2 6.5.2 20 .3 3.3v4l-.2 4.2v1l.1 1.7q.5 1 .5 2.5-.1 11-.5 21.8v3.9q.4 1.8.2 3.2l.1 28v5.9q-.3 2.2-.2 4.6l.2 3v7.8c-.3 1 .1 1.6 0 2.5v1.5l.2 2.6c1 6.3 0 13.3.3 19.8l.7 20.4a125 125 0 0 1-.4 13.4q.6 1.4.3 2.7v2.5l-.1.8-.1.2v8.9q0 2.8.2 5.5V234l.2.3q.2.8.1 1.3l-.2 1.6q-.1 1.2-.1 2.2l.3 4v11.4l.2 8q-.2 3 .3 5.2v.3l-.3 5.5v.2q.3.8.2 1.7-.2 1.9 0 3.8v.4q-.4 1.5 0 3.2v.5q-.2 2.9.1 5.7v.6l.1 9.2v2.3l-.6 13.2.6.5 8.7 7.8 10.6 7.8c.4.3 1 0 1-.5v-8.3l-.2-1.3-.8-10-.2-14.4-.3-8.6q-.3-2.7-.1-3.7.4-4 .3-6v-6.4a149 149 0 0 0 0-14.6c.2-3.7.1-7.8.3-11.2l.4-14.4q0-6.5.2-11c.3-7.7.4-12 .2-19.1q0-4.5.2-8.9a73 73 0 0 0 0-12q0-4.7.3-9.4zM466.2 354.9h.3M438.8 352.2h-4.7l-60-2-.6-.1-9.8.5h-2.4l-2.3.3c-1.4.7-2.9 1.6-4.5 1.9q-1.4.9-2.6 2.1l-1.4.6-1.7 7.7v.4l.2 11.2-.3 5.8-.5 3.1.1.6v.4l-1.2 25.7v1.3q0 .3-.2.8l.1 1.2v2.7q0 .4 0 .8l-.4 3v.8l-.4 5.8-.6 4q.3 1.2.3 2.6l-.2 2.6-.1 1.6-.5 4.5v.1l.2 3.2q.3.7.2 1.5v.8l-.1 1.5a86 86 0 0 0-.8 12.1v1.7l.3 2.8q.5.9.3 2.1l-.2 1.2v1.9l.7 33.9-.2 4.7v5.1l-.1 1.1-.1 2v7.9l.1 2 .7 4.8.3 6.2.3 6 .3 9.2q0 2 .2 4v5.3l.2 3.9q0 2.3.6 5.1.2.7-.1 1.6v1.3l.1.8c0 3-.3 5.8.5 8.9v.4l.5 12v3l-.8 20.4q.9 3.4 2.6 6.2a17 17 0 0 0 6.6 5q3.3 1.5 6.8 1.7L450 636s3.3.8 5.4-2 1.6-15.3 0-18.6q-3-.4-5.9-.3l-79.3-1.7q-.9-.6-1.6-2.7a56 56 0 0 1-.6-12.1q-.4-3 0-6l-.2-7.8c0-1.7-.2-4.9 0-7.3.4-3.2 0-6.3 0-9.4v-8.7q-.2-2-.2-4.2v-2.9q-.4-1.6 0-3.4v-.3q-.2-2.3-.3-4.7 0-4.1-.4-8.2v-4.3l.1-5.2-.1-3.8c-.1-2-.1-5.2-.5-7.7q-.2-1 0-2 .6-1.6.7-3.6.2-2.7.5-3.3.8-1.8 2.2-2.7l2.3.2 11.8 2 37 1.4q3 0 6 .3 2.3.4 4.2.4 2.1 0 4.3.3H451q.4-.4.4-1.5l-.1-.4 4.7-20-.3-1-2.6-1.6-5-1.1h-27l-8.4.2a459 459 0 0 1-23.9-.8l-7.5-.7a180 180 0 0 0-14.3-.6q-.6-2.2-.3-4.3v-.4q-.3-1.8.2-3.6v-.2l.1-11.3.4-1.9c0-3.8-.2-6.9.2-10.2q.2-1.7.3-3.8t-.3-4.7v-1l.3-5 .3-9.4V409a11 11 0 0 1 .3-3.3v-15.4l.4-1.7v-9.6l.1-.6q.6-.6 1.3-1h.1l1.3-.1h.7l.6-.2q1.4 0 2.7-.4l6.5-.6q1.3-.2 2.7 0l1-.1h.5l1.4-.2h-.3q.6-.2 1.2-.2l39-.2h28.8c3.5 0 6.6-2.5 7.2-6l2.7-16.5zM627.4 187.1c-.3 0-1.5 0-2.2.3l-23.3-1.9-1.3-.2-.1 2.8-6.6 70q-.5 1.4-.7 5.1v.3q-.4 1.3-.5 3.4l-2 11.5-.9 4.1q0 .3-.3.2l-1.4-1.8-.3-.6-15.6-56-6.4-22-.3-1-1.6-1.3h-2.7l-1.6 1.3-.3 1-6.4 22-14 52.3-1.6 3.9-.3.4-1.4 1.8q-.2.1-.4-.2l-.7-4.1-2.1-11.5q0-2.1-.4-3.4v-.3q-.3-3.7-.8-5.1l-6.6-70v-2.5h-1.4l-24.7 2-1.3 5.4q.4 3 1.5 5.6l4 19.7.1.5 12.5 83.5q1 4.6 1.3 9.3c.2 2.1.9 4.3 1 6.5l.8 5.7 1 .1 2.1.3 19 .6.8-.4 1.4-2.8 13.6-40.4 3.7-12.6.8-2 1.5-4 .3-.7.2.8 1.5 3.9.8 2 .8 2q.7 1.7 1 3.5l1.9 7.1 13.6 40.4 1.5 3 .4.2h15l4.3-.6 2.2-.3 1-.1q.3-2.9.6-5.7c.3-2.2 1-4.4 1.1-6.5q.3-4.7 1.4-9.3l16.6-103.7zM639.5 46.2 638 31.4q-.1-1.1-1.3-1.5-5-1.5-10-2.1l-.7-.1-11-2.1h-1.4a25 25 0 0 1-6-.7h-2a17 17 0 0 1-3.8-.5h-1.9l-.5.1-3.1-.2-20.9-1.9h-.2L573 22l-1.9-.3-4.1-.4-1.7-.1-1.5-.1h-1.1l-1.4-.1h-3.5l-1.5.2-1.6.1-4.2.4-1.8.3-2.3.4-2.3.4-1.8.2-.8.2a8 8 0 0 1-3.2 0h-.5l-1.1.2-1.7.3-15 .7h-.4c-1 .3-2.5.5-3.5.5h-2.4q-2.7.7-5.5.7h-1.4l-11 2-.8.2q-4.8.6-10 2-1.1.5-1.3 1.6l-1.6 14.8c0 1 .7 2 1.8 2l4.4-.1h2.3l2.3-.1a289 289 0 0 0 17.6-1l24.2-1.5h.1c4 0 11.3.7 12.4 2.4l.6.8c1.4 2.1 2 5 1.7 7.7l-.7 7v.4c.4 3 0 5.5-.2 7v.7l-.1 1.4-1 14.3v1.3q.3 1.6.1 3.4l-.1 1.5v.2l-.2 8a50 50 0 0 1-.7 10v3.7q.2 2.1 0 4.2l-.1.3 2.1 43.7.1.5.4 1.3 1.1 1.7.6 1.1a20 20 0 0 0 9.4 8h1.2a19 19 0 0 0 10-9.1l1-1.7.3-.4.2-1v-.4l1.2-70-.1-1.6a17 17 0 0 1 .1-4v-.7l-1-14.3v-1.4l-.1-.7c-.2-1.6-.6-4-.2-7v-.4l-.7-7a12 12 0 0 1 2.3-8.6c1.2-1.6 8.5-2.3 12.5-2.3 2.3 0 5.5.4 8.8.8h.2l9 .1h.6l5.6.5q9 .8 17.7 1h2.2l1.6.1 5.2.1q1.7-.2 1.7-2ZM143.2 192.5l5.4-1.5-.5-2.8-1.4-16.2c-4-.3-13.7.4-17.7 1.1l-.4.2h-.6l-.8.2a36 36 0 0 1-7.3.4l-6.3.8-19.6-.6c0-1.5 1.5-4.1 1.5-5.9l-.2-8.4a226 226 0 0 0 .8-13.6l.2-6q0-3.3-.3-5.2v3.4c-.3-3-.1-6-.3-8.9l.3.3 1.5-21.5.3-6c.4-7.5 1.8-16.3 2.3-23.7l.5-12.7h-.1l.7-5q1-5.6 1.4-11.3l5-10.7c1.5-.8 18.6-2 20.2-2.9l20.4-.4h1.5l6.2-.8.4-3-.3-.6-.2-5.6q-1-3-2.2-5.6l-.6-.7-.2-.1h-2.1l-.4-.1-2.9-1.2q-1-.7-3.5-.3H142l-8-.3-2 .2-3.8-.2q-4.4.6-9 .5-9.9 2.9-20.2 4.7L85.4 25c-2.3 10.6-6.6 21.7-4 31.5l-.8 24.4-2.4 47.3q0 .7-.2 1.6l-.4 12.2v.7l-.1 35.8q1.3 11.1.7 22c.2 1.7 0 6.6-.1 8.5q0 3.3.3 6.4-.2 1-.2 2.2.5 2.6 0 5 .4 1.4-.1 2.7l.3 9q-.3.6.2 1.2v3.9l.7 8.4a34 34 0 0 1 .1 7.7l.4 4.3-.1 2v.4q.6 1.4.2 3.2c0 1 .6 2 .3 3v.2l.6 7.4 1.1 17.9q.4 1.5.4 3.4v.7l.2.6.3 2.4a14 14 0 0 1-.1 4.5l1 4.9.1 1.7.5 2.6v3.1L84 326c0 1.6 1.3 2.9 2.9 2.8l21.1-.5q.2 0 .1-.3-.4-1.5-.4-3v-.1l-.8-3.7v-.3q.1-4.2-.2-6c-.1-.7-1-2-.5-3.1v-.3q0-.6-.3-1-.3-.8.1-1.4l.1-.2q0-.5-.5-.8-.6-2.2-.1-4.6v-.7a15 15 0 0 1-.6-4.7l-1-4.5v-.1l.2-2.5-.8-1.3-.1-.4q0-4.3-.9-8.4v-3.7q-.3-1.5-.4-3l-5-31.6-.8-5.2q0-6-.3-11.8-.2-4.6.1-9.9l.6-4.6c.3-1.5-1.3-6.4-1-7.7l.4-3.9.1-.9.8.2 11.8-1.5.8-.1h.5q5-.3 10-1M318.5 603.8l-.1-9.4 1.2-182.9q-1.2-4.5-1.1-9.4-.2-2.3-.2-4.5c.3-2.7-.5-5-1-7.6q0-.3-.2-.4l-.3-2.8-.2-.5c-1.3-4.2-1.5-9.3-3.5-13.1l-.4-1.3v-.2l-1-1.2-.5-.5-.4-.5-2-2-1.1-.9-18 .2q-.7 0-.6.8v.4q.4.6.4 1.4l2.5 11.4c.4 1.2.4 2.4.9 3.6l1.6 24v2.7l.2 2.6.2 1.1q.3 1 .1 2.1 0 1-.3 2l.1 1.4v1.6a76 76 0 0 1 .2 12.7v2.7l.1 5.4v1.8q.6 4.5.2 9l.5 12q.4 6.5.3 12.8v5.6l-5.1.3h-.3c-1.7-.8-3-.2-4.7 0q-1 .3-2 0l-4.2-.3-10.8.1q-1.2 0-2.3-.3h-46.9q-6-.7-10.6-.6-.6-1.6-.3-4.5.3-1.4-.1-3.4l-.2-2.6-.1-2.8V438l-1.7-49.8q-.1-1.3.2-3l-.1-2q0-1.2.2-2.3l-.3-.8 1-15.2V360l1.1-2q0-.3.3-.2l-1.9-14-.1-.1-1.2-2-4.2 1.7c-5 2.1-7.3 3.8-12.3 6.1a97 97 0 0 0-7.8 26.4l-.3 1.9-.2 1.9a49 49 0 0 0-.2 8q.2 2.3 1 4.4l-1 59.8q.2 2 0 3.3l-.2 4.6v4.3l-.3 1.2v7.7q.6 3.8.2 7.8v.2l5.8 125.6.1 1.6.7 5.9.3 1.7.2 1.7q-.2 4.2.9 8.1v3.9l.9 7q0 .5.6.3l20.4 3.5c.3 0 .8.2.9-.3l-.9-17.9q.2-1.1-.2-5.5v-4a37 37 0 0 0-.2-9l-.3-6q0-1 .2-2.5l.1-2.3q-.3-4 0-7.7a40 40 0 0 0-.4-7.3q.2-2.4 0-4.7l-.2-32c0-4.2 0-8 .2-12.5a48 48 0 0 0 0-6.7c-.2-1.3-.3-12-.4-13.4l40.9-3.1 5.2-.1 19.3.2 2 .2c4.7.3 8.8.9 14.2 1.3q2.3 0 4.8 1.4l.3.3c1.3 4.9 1 9.6 1.2 14.4v2.4l-.2 3.2.3 4.3.1 14.8-.4 2.2v.4q0 4.2-.6 8.5v2.1l-1.9 62.4c-.7 3.5-.5 6.7-.9 10v2.3q0 1.4-.3 2.4l-.1.2h.6l23.6-.7v-.2l-.6-.3v-2.9q0-3.8 1-7.3l1-9.8v-.1q-.4-2.1 0-4.4v-2.1q-.4-3.3-.3-6.7zM179 65.7l2.5 28.3v.1l-.1 2.6v.4l.6 1.9.3 4.2v2.5q.5 1.7.3 4.2-.1.8.3 2.7.4 1.2.3 2.7.7 3 .8 5.7l.1 2q.2.9.1 1.9h.1l.2.8-.2 3.3v.3l.3 2q-.3 1 0 1.4.7 1 .4 2.1-.4 2-.1 4l.3 2.4.4 19.4q.5 1.3.3 2.6.2.9 0 1.6-.2 1.2 0 2.1v3c.1 1.7-.5 3.6 0 5.5v2.3l.1 6.6v.4q-.4 1.8-.4 3.8l1 15a41 41 0 0 0 0 8.2q-.2.7-.1 1.4l-.1 1.3q-.2.8 0 1.5v.3l.4 5.7v3q-.2 1.6-.2 2.8v3.4l.3 2.9.1 10.3v3.6l-.3 2.7-.1 2.6.1 5.8a41 41 0 0 1-.5 6.8v4l-.5 2.4v.8l.1.6v10.6q0 2.2-.7 4.6v2.3l-.3 3.3.1 1v4l.3 1.4-.1 1.2q.2 0 .2.3a51 51 0 0 0-.3 9.3v.4q-.2 1.4-.2 2.6v1l.8 1q2.2 2.4 4.9 4.3c2.2 1.7 6.7 3.1 9.2 4.2q3.5 1.6 7.1 2.6l1.2-5.6h-.2v-.1l.2-10.8v-.3l-.7-6 .1-1v-.5q-.3-1.3 0-2.7v-.5l-.4-4q0-2.7-.5-5.2.3-.9 0-1.9c-.2-1.2-.7-2.7-.1-4q.1-.5-.2-1.9v-.3l-.1-4.4-.4-6.3-.4-4.8c-.3-2.2-.9-4-.4-6.5v-.2l-1-11v-1l-.8-5v-.7a15 15 0 0 0-.7-4.4 22 22 0 0 0-.6-5.4 29 29 0 0 0-.6-5v-4.5l-.5-7.9q-.3-.9-.4-1.8 0-1.7-.2-3.4 0-2-.1-4v-5q0-1.5.2-5.2v-.4a14 14 0 0 1 .1-4.7l-.4-3.2v-5.6q0-1.5.2-3v-3l-.1-3.5q.3-.5.2-1.1c-.4-2.4 0-4.7 0-7v-.2q-.3-1.3 0-3.5 0-1.5-.5-4.5v-.3l.3-2.8v-1q-.6-2.1-.5-4.2l.1-3.6v-5.5l-.2-1.9-.3-10.1q0-1.1.7-3.6 0-4.4.2-8.7v-5.5l.4-2q.4-2.7.3-5.4.2-.5.5-.1l2.3 3.8.2.5 2.3 6 7 16.2 6.7 17.5q1 1.8 1.4 4l9.5 22.5 2.4 5.9v.1c.8.9.7 2 1.1 2.9l1 2.8 1 2.1.6 1.4q1 2 1.5 4.3l.4 1q.5.6.6 1.8l.3.5 1.9 4.5q0 .1.2.3.8.8 1.4 2 1 2 1.6 4c.4 1.4 1.3 3.4 1.6 5.3l12 28.3a23 23 0 0 0 2.3 6.3l1.3 2.7q.3 1.2 1.1 2.3l.2.4q.3 2.8.9 3.4a7 7 0 0 1 1.3 2q.3 1.3.6 1.3.6 3 1.7 4.9l3.7 10.2q.9.8 1.3 2.2.3.3.5 1l1 2.3 9.2 22.7 1 1.8.5.8q.8 2.1 1.3 4.1.6 2.2 1.3 3.1t.7 1.4l.5.8a6 6 0 0 0 1.3 2.2l.1.4 5.8 5.3a61 61 0 0 0 8.8 3.5c5 1.5 7.5 2.2 12.6 2.2.6-.1.3-.4.3-.6l-2-5v-.2q.2-.3 0-.6h-.1l-.1-.8-.3-1.2q.2-.5 0-.8 0-.2-.3-.5l-.2-1.9-1.4-8 .2-2-.4-4.7a14 14 0 0 0-.6-5.7l-.1-3.8v-.1q-.4-1.6-.4-2.8v-6.6l-.1-.8a13 13 0 0 1 0-4.2l-.6-5.1-.2-4.6v-.2l-.3-.7v-2.4l-.1-5.2v-.2q-1.1-2.6-.7-5.4v-.6l-1.2-14q-.6-.6 0-2l-.5-3.8v-.3a5 5 0 0 0-.2-2.5v-.4l-.3-10.7v-.4l-.2-7.1v-2.6l.2-10q0-1.5-.2-3l-.2-2.2.2-4.3v-22.8q.3-1.3.1-2.5v-5.3c.2-2.1-.2-4.3 0-6.6v-10.5l.3-2.6v-.4l-.3-2.2-.3-2.3v3.6-3.9.3-5.4.9L307 78V78l-.3-6.3v-.1l.3-7.1v-.2l-.2-4.7-.1-2a74 74 0 0 0 3.7-10.8c1-3.6 2.9-7.8 3.6-11.5q0-.8.6-1.9l2.6-11.8-1.6-5-20.9-6.2a91 91 0 0 0-5.1 18.9 195 195 0 0 0-2.8 21.1v5.8l-.2 11.4-.2 1 2 53.1q.3 1 .3 2 0 1.8.3 4v2.5l.3 1.5v3q.2.8.1 1.5v4.4l-.2 1.6.2.2.1 5.6q0 1.5-.2 2.7 0 .9.2 1.6l.1 3.2v.3l-.1.2-.1.6q.4.7.4 1.5v.6q-.3 1.9 0 3.8l.3 5.8 1.7 50.5v1.7q.4 2.2-.2 4.5l.1 1.1.3 1 .2 5.5v.8q.3.3 0 .8-.1 1.6 0 3.3l.3 1.2v1l.2 3.4v.2q-.3 1.3-.3 2.6.3.4 0 1l.3 3 .4 8v.3l-.2 6 .4 3.4v.1l.1 4v.1l-.2-.1a56 56 0 0 0-4.3-9.5l-1.1-3.2-4.6-10.1a50 50 0 0 0-3.3-6.7q-.4-2.9-1.5-5.2l-7.2-18.8q-.9-2.6-3-7-.9-1.7-1.2-3.5c-.3-1.5-1.1-2.7-1.5-4.2l-1-2.7a45 45 0 0 1-2.3-6q-1.4-2.2-2-4.5-.4-1-1-2.2l-.5-1.4-6.1-16.1-1.3-3.1-.1-.3-1.9-5.2-20.7-51.6-1.3-3.5q-.8-2.3-2.3-5.3l-1-2.8q-.8-2.4-1.8-4.6-.9-2.4-1.5-4.9-.3-1.3-1-2.7l-2.9-6.4q-.8-2.3-1.6-4.9l-.7-1.4q-1.1-1.7-1.9-3.6-3.8-11-6.1-16.9l-3.7-7.8c-.3-1.6-1.2-2.8-1.6-4.4V41l-1-1.7-12.8-.5" class="st0"/><path d="m307.5 122.8.3-3-.4-25.7-.1 34.3zM150.2 370.4l-2.3-10.3a5 5 0 0 0-4.1-3.9l-2.8-.3-21.4-1h-.3l-26-3-.5-.1q-4-1-8.3-.8h-.4l-6-.5h-8.6L37 352l-15.4 5.5-8 2.8a7 7 0 0 0-2.6 2l-.6 1.2-.6 1.6-.1.7-.1 1.4v1.4l.1.6.3 1.1a7 7 0 0 0 2 2.9l.9.7 1.6 1.5.2.1q.4.3.7.3l4.4.8 23.3-.3h.7l2.7.3h.3l19.1 1q.8 0 1.3.3l5.9 1.9q.4-.2.5.2l1.7 14.1v1l-3.4 82v2.1l.2.4 3 11.4v.3q1 1.4 1.6 3.4l4 1.9 1.3.3 4.2.8.9-.1q1.5-.4 3-1.4l1.5-1.2.5-.4.6-.7a20 20 0 0 0 3.9-7l.2-.5 1.2-5.1v-1l.6-1.2-.2-.2.8-48v-.5l-.5-5.8v-.6l.5-16.7v-.5c-.3-4.4.7-6 .6-10 0-.7-.2-12 .1-12.9l1.5-4c.3-1 3-1.4 4.3-1.6h.5l33.2-1.1 3.6-.6 2.3-.3.6-.1q.6 0 1-.3 1.2-.3 1.9-1a4 4 0 0 0 1.2-2v-.3l.1-.3.1-.5v-1.5ZM146.6 511.5l-1-2.3-.7-1.3-2-2.5-.7-1-.4-.7a3 3 0 0 0-2-1.5l-1.8-.2-2.8.4-2.4 1-.4.3-.1.2-12 14.3q-1 1-1 2.4l-5.5 74.2h-.6c-2.1 0-4-1.6-4.7-4.1l-16.3-54.9-.3-1.5-2-8-.4-1.1a56 56 0 0 1-1.7-6.7q-.5-1.6-2.2-2.2l-1.8-.5q-.9-.3-1.8 0l-1.8.5c-1 .3-2 1.1-2.2 2.2l-1 3.5-1 4-.1.2-2 8.1q0 .8-.3 1.4l-21 59.2H52l-5.5-75.7q0-1.2-.7-2l-.7-.9-3.8-4.3-.6-1-7.2-7.1-.2-.2-.3-.4-2.4-1-.9-.2H26a3 3 0 0 0-2 1.6l-.4.7-.7 1-2 2.5-.7 1.3-1 2.3q-.5 1-.2 2.1l1.4 9.3v.3L32 606.7v.3l6.3 27.4a3 3 0 0 0 2.5 2.6l19.7 1.3 1-.4.1-.1.3-.2.7-.4 1.4-1 .4-.2.4-.3 18.2-59 18.3 59 .4.3.3.2 1.5 1 .6.4.4.2 1 .5 20.7-1.4a3 3 0 0 0 2.5-2.6L134 607v-.2l11.5-83.6v-.3l1.5-9.3q0-1-.2-2ZM474.8 142.3v-1a216 216 0 0 0-5.9-43.3l-.5-2.4-.4-2.9a69 69 0 0 0-5.5-23.2q-1.3-5.2-3.3-10.5l-.1-.4-.1-.2-5.6-12-.9-2v-.2l-2.4-5c-.9-1.4-1.8-3.7-2.7-4.8q-1.6-1.8-3.6-3l-5.8-4.8-1-.4-7.2-3.5c-.2-.2-6.4-1.3-6.6-1.5-.7-.3-1.7-.6-4.6-.6q-4.6 0-11.2 1.1l-1.5.5q-2 .8-4.2 1h-.6l-.6.2-7.8 2.8-.3.1a90 90 0 0 0-12 7A70.5 70.5 0 0 0 354 62v.4l-6 19.9-.2.8q0 1-.3 2l-.8 4.2-.2 1-1.7 12-.6 5.2v.3l-.8 7-1.5 10.8-.2 1.6a242 242 0 0 0-2.8 27.2 144 144 0 0 0-.9 31v.5l.2 2 .3 2.2v1.4q.4 7 1.1 13.5l.5 3.4.2 1.2.6 3.7.2 1.2.6 3.2q.5 2.2.4 4.6a58 58 0 0 0 1.1 11.2v.2l6.4 22.4a41 41 0 0 0 4.6 12.8l.7 2 4.3 9.8.3.6 4 9.9.7 1.8q2 5.4 4.4 9l.2.4.3.6.9 1.2 1.2 1.5.3.5 1 1 .2.3.6.6 1.1 1.1.7.7q3.5 3 7.8 5.5h.2l16 7.7q.4.3 1 .3h.2l7.7 1 3 .2c1.4 0 3.5-.5 4.7-1.1l15.3-8.5.8-.6 8.8-9.6.4-.5 2.6-2.2c1.8-2 6.2-6 11.2-17.1l2-5.8a80 80 0 0 0 10.2-30.2l1.6-9.5c0-.2 2.2-9.6 2.3-14.9l1-7.6 1.6-53a115 115 0 0 0 1.4-15.5v-6m-21.9 22.3q-.8 21.5-3.2 43.3c-1.1 10.4-3.5 23.6-5 32.1q-.6 3.7-4.9 18.6a69 69 0 0 1-17.1 30.7c-7.5 7.5-18.3 10.4-26.6 5-16.6-11-26.6-35.7-30.4-59.4a375 375 0 0 1-4.6-48.6c-.4-14.6 1-31.8 3.4-47 2.2-14 3.1-23.8 6-36.2 3.5-14.7 5.9-28.2 12.6-38a56 56 0 0 1 16.3-15.9q15.4-9.8 29.2 3.4a52 52 0 0 1 13.7 25.6q5.2 19 7 28.8 4.8 28.2 3.6 57.6Z" class="st0"/></svg>