<?xml version="1.0" encoding="UTF-8"?>
<svg id="Layer_1" xmlns="http://www.w3.org/2000/svg" version="1.1" viewBox="0 0 652.73 652.73">
  <!-- Generator: Adobe Illustrator 30.2.1, SVG Export Plug-In . SVG Version: 2.1.1 Build 1)  -->
  <defs>
    <style>
      .st0 {
        fill: #fff;
      }
    </style>
  </defs>
  <path class="st0" d="M495.42,532.79l.36-.15c-.13-.11-.34-.03-.36.15Z"/>
  <path class="st0" d="M627.7,348.85c-.7-2.06-1.6-4.66-2.05-6.06-.21-.65-.7-1.17-1.33-1.43l-3.71-1.48-7.65-.02c-2.79.27-5.07.24-7.65,2.68-.69.66-1.52,1.14-2.33,1.63-.15.09-.26.22-.33.37-1.24,2.83-2.48,6.19-2.24,9.37l.43,16.54c-.15,1.03-.03,2.11.36,3.25.08.23.13.48.13.72.02,2.33,0,4.12-.06,5.35-.08,1.56.02,3.01.29,4.35.01.17.02.33.03.49-.11,1.75-.11,3.5.02,5.25.05.68-.15,1.27-.11,1.92l-1.39,60.82c-.05,4.06-.23,8.1-.53,12.1-.13,1.67-.19,3.22-.17,4.67.04,4.26.08,8.48-.16,12.74-.13,2.31.04,4.59,0,6.92-.02,1.17-.25,2.33-.46,3.48-.11.6-.14,1.21-.09,1.81.13,1.59.07,3.17-.17,4.73.01.1.03.19.03.3.02,1.35-.11,2.73-.14,4.09,0,.31-.02.62-.05.93.1.27.14.61.01,1.1-.28,1.11-.1,2.25.09,3.39.03.15-.01.31-.1.44.03.35-.01.7-.13,1.03,0,.82,0,1.64-.05,2.45-.04.65-.12,1.28-.22,1.92l.26,6.22c.18,1.47.23,2.93.14,4.37-.12,2-.18,3.26-.18,3.76l-.24,9.95c.11,5.3-.1,10.11-.66,14.45-.18,1.46-.28,2.42-.27,2.89.06.39.05.77,0,1.13.12.43.23.85.29,1.31.13,1.06.02,2.12-.02,3.18-.04,1.11-.04,2.22-.05,3.34,0,1.12-.21,2.32-.2,3.28,0,.39-.12.74-.3,1.03.02.1.04.21.04.31,0,.18-.03.35-.05.52-.03.18-.07.35-.1.53-.03.1-.07.2-.12.29.03,1.04-.18,2.12-.49,2.86-.1.22-.39.24-.51.03-.31-.56-.51-1.13-.59-1.72-.02-.15-.11-.28-.23-.37-.84-.63-1.09-1.87-1.44-2.82-.2-.55-.45-1.13-.76-1.74-.98-1.95-1.83-3.97-2.55-6.04-.12-.34-.27-.66-.47-.95l-1.48-2.22c-.04-.1-.08-.2-.12-.31-.19-1.22-.57-2.36-1.15-3.45-.05-.12-.09-.23-.14-.35-.53-1.92-1.33-4.21-2.38-6.87l-6.7-16.16s-.02-.1-.04-.14l-1.88-4.17-1.55-4.64c-.13-.39-.33-.76-.57-1.08l-20.96-67.44c-.17-.73-.29-1.44-.34-2.14-.02-.12-.04-.23-.06-.35-.81-3.04-1.59-6.1-2.34-9.17-.16-.64-.56-1.83-1.19-3.55-.04-.17-.09-.35-.14-.53-.52-3.26-1.47-6.37-2.85-9.33-.01-.06-.03-.11-.04-.17l-.04-2.03c0-.11-.06-.27-.13-.37-.3-.42-.44-.95-.44-1.59l-3.38-11.38c-.19-.59-.35-1.31-.47-2.15l-6.6-27.02c.01-.17-.03-.35-.12-.54.02-.13,0-.34-.05-.67-1.53-6.98-3.77-13.89-6.54-20.53-1.39-3.32-2.9-6.59-4.53-9.76-.18-.36-.37-.73-.57-1.1l-11.79.56c-4.29.46-8.56,1.08-12.83,1.77-.66,3.5-1.64,6.93-2.7,10.35.31.36.61.73.93,1.1.46.58.95,1.14,1.41,1.73.73.89,1.45,1.79,2.19,2.66h0c.07,1.34-.07,3.63-.41,6.87l-.33,18.16c.18,1.55.28,2.91.32,4.08.02.83.07,1.57.15,2.23.27,2.23-.08,4.34-.08,6.54l.27,32.53v.58l-.21,49.71c0,.07-.02.14-.03.2-.38,1.51-.56,2.4-.55,2.66.06,1.22-.08,2.4-.42,3.55-.01.08-.02.16-.03.23v3.06c.25.68.38,1.37.38,2.07l-.75,30.75c.02.31-.02.61-.11.91-.47,1.55-.26,3.61-.32,4.76-.05,1.01-.08,2.02-.05,3.03.05,2.5-.25,4.96-.21,7.46.03,1.59,0,3-.06,4.22-.08,1.41-.12,2.82-.13,4.23l-.23,4.95-.25,4.33c.04.22.03.37-.04.48-.11,1.27-.2,2.54-.27,3.82-.16,2.72.12,5.48.26,8.25l-.13,3.58-.39,7.76v.2c.23,2.84.3,4.78.2,5.82-.22,2.27-.07,14.53.04,16.81.07,1.05.04,2.09-.08,3.13v.5c.14,1.74.1,3.34-.1,4.79-.05.07-.11.16-.17.27-1.14,2.48-1.82,5.21-2.02,8-.05.7-.07,1.4-.06,2.1v.27l.02.29c0,.19.02.39.04.59.04.4.09.8.17,1.22.13.67.32,1.39.66,2.12l.28.56c.24.44.56.88.93,1.3.43.45.91.83,1.45,1.13h.01l5.06.59c1.19-.12,2.37-.31,3.53-.58,2.47-.57,4.85-1.46,7.07-2.64.24-.18.26-.29.21-.39l3.85-6.95c.01-2.31.05-4.67.12-7.08l.7-6.35-.59-22.34c-.08-.29-.14-.59-.16-.89-.16-2.3-.19-4.59-.11-6.88.02-.44-.02-1.42-.1-2.93l-.74-26.05,2.23-40.49c.19-1.7.25-3.32.17-4.85-.04-.81,0-1.62.01-2.44,0-.16-.01-.31-.04-.46-.37-2.07-.44-4.15-.2-6.21.14-1.15.22-2.32.26-3.51.04-1.18.09-2.38.41-3.51.06-.2.09-.42.09-.64l-.18-8.74s.03-.12.04-.17c.21-.45.3-1.67.27-3.64-.02-1.21.25-3.46.82-6.73l.12-14.47c-.03-.33.05-.86.24-1.6l.02-.11.54-11.76c.01-.14.07-.27.18-.35,1.45-1.19,2.34-1.07,3.94-.13,1.2.7,2.43,1.32,3.68,1.87.15.07.28.18.36.32.56.93,1.03,1.75,1.39,2.82,1.34,3.98,2.21,6.68,2.62,8.09.22.76.48,1.37.77,1.85.08.15.2.38.27.53l5.81,15.15c1.62,2.95,2.54,6.28,3.68,9.12,1.4,3.49,2.67,7.04,3.79,10.64.06.07.14.16.2.22.17.1.3.24.38.43.76,1.82,1.43,3.68,2.02,5.56.55,1.75,1.07,3.21,1.56,4.38.62,1.5,1.24,3,1.86,4.49.1.24.17.49.22.74.3,1.42.78,2.77,1.43,4.04l16.59,45.92c.61,1.81,1.21,3.62,1.79,5.44.02.04.03.08.05.12.39.75.7,1.55.92,2.37l19.93,55.31c1.54,2.93,4.17,5.12,7.3,6.1,5.3.47,10.6.91,15.89,1.31.46.04.87-.29.94-.75.07-.48.14-.97.22-1.45l2.48-16.55c.02-.12.04-.24.05-.36h-.01c.04-.35.08-.7.12-1.06.09-.79.14-1.56.13-2.29-.07-5.95-.43-11.81-.07-17.76v-.08l-.33-5.94-.84-17.82c-.05-.22-.04-.44.01-.65l.36-1.35c.07-.27.09-.56.06-.84l-.4-3.13c-.05-.39-.06-.78-.04-1.17.21-4.05.41-6.69-.02-9.32-.1-.58-.12-1.28-.08-2.08.05-.93.02-2-.09-3.19-.11-1.18.22-2.47.14-3.79-.03-.58-.05-1.14-.08-1.69-.05-1.34.09-5.82.44-13.46.05-1.13.06-2.92.01-5.39-.03-1.74.02-3.48.18-5.21.2-2.2.3-4.07.29-5.59,0-1.97.06-3.95.14-5.92.06-1.46.08-2.66.41-3.64-.18-1.87-.1-3.76-.2-5.64-.03-.46.03-.86.13-1.23-.05-.97.04-2.01.17-3.06v-.45c-.11-.77-.09-1.54.06-2.29.06-.3.09-.61.06-.91-.3-3.2-.38-6.03-.24-8.49.16-2.74.23-4.59.22-5.56l2.14-87.56c-.02-1.63.1-3.32.19-5.01l.04-.89c.03-.69.03-1.38.03-2.07,0-1.06.05-2.2.14-3.42,0-.08,0-.16.01-.24h.02c.13-2.13.39-4.4.71-6.67.31-2.28.7-4.59.97-6.86.33-2.51,1.14-5.31,1.74-8.06.46-2.1.31-4.29-.38-6.32l-.03-.03Z"/>
  <path class="st0" d="M52.3,166.34c-.22-2.31-.35-3.75-.37-4.31-.08-2.1-.15-4.21-.22-6.31-.1-3.02.17-5.9.4-8.89.07-1,.03-2.59-.13-4.76-.12-1.69-.19-3.28-.2-4.75-.03-3.62-.15-7.23-.36-10.83l-.23-11c-.1-2.85-.45-5.67-.35-8.44.08-2.29.37-4.99.06-7.23-.32-2.27-.45-3.92-.4-4.95.25-4.97.19-9.93-.19-14.86-.21-2.79-.11-5.09.07-7.73,0-.16,0-.32-.02-.48-.4-2.54-.67-5.1-.79-7.68-.12-2.55-.55-5.22-.61-7.89-.04-2.03-.43-3.87-.4-5.99l-1.22-20.99h0c-.59-1.06-1.18-2.11-1.76-3.17-1.65-2.99-3.02-5.99-4.67-8.66h0c-1.27-.55-2.51-.93-3.63-1.05-1.33-.15-2.83.06-4.37.55h0c-.71.53-1.38,1.14-2.01,1.84.05.18.09.37.14.55l-2.11,6.49h0l.25,19.99h0c.12,1.18.22,2.3.3,3.34.1,1.28.02,2.58.05,3.92.04,1.43-.19,2.83-.19,4.3v.88c.13.51.15,1.1.08,1.77h0c.27.71.43,1.54.43,2.53-.02,7.28-.21,14.55-.48,21.82l-.03,3.08.13.81c.18,1.12.23,2.18.15,3.18l.09,27.94v.05l-.08,5.86h0c-.17,1.54-.21,3.09-.11,4.65.11,1.63.16,2.64.17,3.03.02,1.01.04,2.02.06,3.03.01.48-.01,1.19-.06,2.13-.04.71-.04,1.43-.01,2.15,0,.14,0,.28-.04.41-.27,1.02.19,1.66.15,2.5-.01.35-.05.7-.12,1.04-.03.16-.03.32,0,.48.16.9.24,1.75.23,2.57h0c1,6.31.05,13.37.34,19.81.3,6.81.46,13.62.62,20.44.1,4.32-.04,8.54-.37,12.75.04.23.05.45.02.64.36.88.45,1.78.28,2.71-.01.15-.03.39-.04.54.04.67.07,1.33.11,1.98.02.29-.04.53-.17.73-.05.08-.08.18-.09.29-.09,1.49-.1,2.98-.05,4.47.06,1.59.08,3.06.06,4.42-.02,1.84.05,3.67.21,5.48h0c-.02.88-.04,1.74-.06,2.6,0,.32.04,1.19.13,2.59.06.96.02,1.92-.13,2.88v.08l.12,4.25c.02.09.05.24.07.33.17.46.22.87.15,1.23-.11.58-.17,1.1-.16,1.58.01.81-.25,1.51-.19,2.22.11,1.32.22,2.63.31,3.95.07.99.07,2.22,0,3.69-.07,1.23-.08,2.46-.04,3.71l.08,4v.09l.18,8.01c-.13,1.95-.03,3.69.31,5.2,0,.09.01.17.02.26l-.29,5.51c0,.06.02.12.03.19.18.54.23,1.13.13,1.75-.19,1.23-.08,2.48-.03,3.72,0,.17,0,.32-.03.49-.19,1.04-.19,2.07-.01,3.12,0,.14.02.36.03.49-.1,1.92-.03,3.83.21,5.73.01.17.03.45.04.62l.05,9.21c-.02.09-.02.18-.02.27l.03,2.02h0l-.6,13.18.6.56,8.62,7.78h0l10.61,7.75c.4.29.97,0,.96-.51l-.02-1.22h0c.08-1.16.14-2.31.16-3.45v-.12s0,.01,0,.02l-.15-3.45c-.03-.43-.08-.88-.12-1.35-.33-3.3-.59-6.61-.76-9.93l-.21-14.49c-.2-2.86-.16-5.7-.38-8.55-.14-1.8-.17-3.04-.1-3.72.29-2.71.42-4.74.39-6.09-.08-3.24-.1-5.35-.07-6.32.13-3.8.15-7.15.05-10.06-.05-1.58-.05-3.07,0-4.49.15-3.75.11-7.85.26-11.24.21-4.79.34-9.57.37-14.37.03-4.32.11-8.02.23-11.09.32-7.69.42-12.01.21-19.08-.09-2.93,0-5.88.23-8.87.28-3.47.22-6.96,0-10.44-.03-.55-.04-1.08-.04-1.56.05-3.14.16-6.28.32-9.42.08-1.49.04-2.96-.1-4.42l.06-.02Z"/>
  <g>
    <line class="st0" x1="466.16" y1="354.89" x2="466.46" y2="354.93"/>
    <path class="st0" d="M438.8,352.18c-1.57,0-3.14.02-4.72.07l-59.94-2.13c-.19-.06-.39-.07-.59-.03l-9.81.55h0l-2.49-.12-2.2.34h0c-1.46.69-2.92,1.63-4.51,1.92h-.01c-.95.59-1.82,1.31-2.61,2.14-.47.19-.93.39-1.39.61h0c-.55,2.56-1.14,5.1-1.74,7.63,0,.07.02.13.03.2-.01.02-.02.04-.04.05-.01.09.02.16.07.22l.18,11.12-.28,5.85v.03l-.57,3.08.13.63c0,.12-.02.24-.04.35l-1.15,25.75c.08.32.07.73-.04,1.21.05.29,0,.56-.16.82l.08,1.19v2.77c-.09.24-.1.49-.04.75l-.37,3.11.02.75-.38,5.72-.59,4.02h0c.21.83.29,1.69.23,2.59l-.21,2.62-.1,1.63-.45,4.51v.11c.1,1.2.17,2.24.22,3.16h0c.16.46.23.97.16,1.54-.03.26-.05.52-.08.77,0,.65-.02,1.15-.06,1.5-.21,1.6-.37,3.21-.49,4.83-.07,1.17-.14,2.35-.19,3.52-.03.92-.04,1.84-.04,2.76-.1.36-.13.69-.07,1l.02.77c.11.36.13.65.09.87h0c.09.95.17,1.89.23,2.83h0c.31.58.45,1.3.31,2.12-.07.41-.16.81-.23,1.22h0c0,.61-.03,1.22-.05,1.83l.78,33.93h0c-.09,1.56-.18,3.12-.2,4.69.03.31.01.56-.06.75v4.33l-.06,1.18c-.03.65-.09,1.3-.1,1.95l-.06,1.96c0,.33-.02.65-.02.98v.99l.02,1.97c.01.66.06,1.32.08,1.97.03.66.05,1.31.1,1.97.05.66.11,1.33.19,2,.11.96.26,1.92.47,2.89.15,2.05.21,4.09.3,6.14,0,.15.13,2.18.36,6.07.18,3.07.13,6.14.32,9.21.09,1.31,0,2.61.11,3.9.14,1.75.17,3.52.06,5.31h0l.23,3.94c-.13,1.5.06,3.21.57,5.13.12.47.08,1-.14,1.6-.04.11-.05.22-.04.33l.12.95.04.77c-.05,3.01-.34,5.86.49,8.9.02.14.04.29.07.43l.42,12.04h0v.4l.06,1.49s-.06.02-.11,0c.05.35.08.72.08,1.1l-.77,20.41h0c.46,2.26,1.42,4.24,2.58,6.11.02.03.04.06.06.09.94,1.17,2.01,2.28,3.25,3.17,1.02.75,2.11,1.36,3.22,1.84,2.23.97,4.54,1.45,6.81,1.63l85.85,2.54c.08-.11,3.26.82,5.35-1.94,2.15-2.84,1.6-15.4.08-18.66h0c-1.95-.29-3.92-.41-5.9-.34-.04,0-.07,0-.11-.01l-79.19-1.64h0c-.61-.4-1.16-1.3-1.66-2.72h0c-.5-3.37-.66-6.96-.49-10.76.02-.45,0-.9-.06-1.35-.26-2.01-.28-4.01-.06-6.01-.09-2.58-.14-5.16-.15-7.75,0-1.77-.24-4.93.02-7.33.34-3.19-.04-6.3-.1-9.45l.06-2.63v-6.01c0-1.29-.25-2.8-.22-4.22.02-1.12,0-2.09-.05-2.9-.08-1.12-.24-2.25.03-3.37,0-.11.02-.22.03-.32-.13-1.58-.3-3.09-.29-4.72.02-2.73-.17-5.45-.35-8.17-.11-1.64-.14-3.09-.1-4.35.06-1.71.13-3.43.2-5.16h0c-.03-1.25-.09-2.52-.16-3.79-.12-2.04-.09-5.23-.53-7.74-.11-.65-.1-1.32.1-1.95.37-1.14.6-2.36.68-3.65.11-1.77.25-2.86.42-3.26.55-1.31,1.32-2.07,2.22-2.69h0c.78.07,1.57.12,2.35.18l11.75,2.03h0l37.02,1.35c1.98,0,3.96.07,5.92.33,1.59.22,3.03.35,4.32.38,1.41.05,2.82.14,4.22.28l15.73.11h0c.28-.31.43-.85.46-1.61-.07-.12-.12-.24-.18-.35l4.7-20.01-.23-.93-2.59-1.72h0l-4.96-1.1-27.12.02c-2.78.11-5.59.19-8.41.19-5.64.02-11.3-.15-16.75-.33-2.27-.08-4.66-.25-7.11-.47-2.46-.23-4.97-.47-7.49-.71-2.53-.23-5.06-.43-7.54-.55-2.31-.09-4.57-.13-6.73-.02,0,0-.01,0-.02-.01-.41-1.45-.52-2.89-.34-4.29v-.43c-.17-1.2-.11-2.38.2-3.55.01-.08.02-.17.03-.25l.09-11.26v-.07l.41-1.79s0-.07.01-.11c-.04-3.72-.21-6.79.2-10.12.15-1.21.13-2.46.25-3.8.11-1.37.03-2.93-.25-4.71-.05-.33-.07-.67-.04-1.01l.36-5.07c.19-2.7.32-5.42.4-8.17,0-.19-.01-.39-.05-.59-.04-.24-.06-.44-.06-.58,0-1.82-.04-3.66-.11-5.51-.01-2.3.02-4.62.1-6.94.01-.21-.02-1.15-.09-2.83-.04-.94.04-1.88.24-2.83,0-.14.04-.3.13-.48l.03-15.11c0-.08.02-.16.02-.24l.32-1.71v-9.64c0-.2.06-.41.18-.57.33-.44.74-.79,1.22-1.05h.13c.43-.03.87-.07,1.31-.1l.66-.06.65-.08c.92-.11,1.83-.27,2.73-.47,2.15-.14,4.29-.32,6.43-.59.92-.12,1.85-.21,2.76-.05.3.05.61.03.9-.04.18,0,.36.02.54.03.46-.09.94-.18,1.4-.26h-.23c.37-.13.75-.16,1.12-.17l38.95-.18,28.9.05c3.53,0,6.56-2.54,7.2-6.05l2.64-16.53-27.65-.78v-.02Z"/>
  </g>
  <path class="st0" d="M627.42,187.11c-.31,0-1.56.05-2.21.27h0l-23.31-1.87-1.33-.17-.09,2.76h0l-6.6,70h0c-.31.9-.55,2.61-.72,5.13-.01.08-.02.16-.03.24-.2.86-.34,2.02-.42,3.47h0l-2.1,11.44c-.23,1.2-.48,2.58-.76,4.15-.04.21-.26.3-.38.14l-1.4-1.81c-.07-.15-.19-.38-.27-.53l-15.58-56.01-6.42-21.95-.33-1.11h0c-.6-.5-.97-.8-1.56-1.29h-2.73c-.6.49-.97.79-1.56,1.28h0s-.33,1.12-.33,1.12l-6.42,21.95-14.03,52.28h0l-1.59,3.87c-.08.13-.15.26-.23.39l-1.4,1.81c-.12.16-.35.08-.38-.14-.27-1.57-.52-2.95-.76-4.15l-2.1-11.44h0c-.07-1.45-.22-2.61-.42-3.47-.01-.08-.02-.16-.03-.24-.17-2.52-.41-4.23-.72-5.13h0l-6.6-70h0l-.04-2.48s0-.02-.02-.02l-1.35-.09h0l-24.68,2.06s-.02,0-.02.02l-1.27,5.42h0c.22,1.97.75,3.86,1.44,5.61h0l4.04,19.68c0,.16.04.32.11.45l12.43,83.52h0c.8,3,1.05,6.24,1.34,9.36.2,2.1.86,4.24,1.09,6.47.2,1.97.53,3.79.71,5.68.31.04.61.08.92.12l2.22.31h0l19.05.62c.25-.15.51-.3.75-.45l1.39-2.76h0l13.61-40.42,3.68-12.57c.21-.71.47-1.39.77-2.05l1.5-3.91.28-.81.28.81,1.5,3.91c.3.66.56,1.34.77,2.05.18.63.45,1.3.8,2.02.51,1.06.82,2.21.91,3.44h0l1.97,7.11h0l13.61,40.42h0l1.47,2.92c.17.1.29.18.46.28h14.98c1.39-.19,2.82-.4,4.28-.61l2.22-.31c.31-.04.61-.08.92-.12.18-1.89.52-3.71.71-5.68.22-2.23.89-4.37,1.09-6.47.29-3.12.55-6.36,1.34-9.36h0l16.58-103.66h0l1.02-11.47s0-.03-.02-.03h-.03Z"/>
  <path class="st0" d="M639.51,46.18l-1.6-14.79c-.08-.71-.58-1.31-1.26-1.5-3.47-.98-6.77-1.74-10.02-2.12-.24-.04-.48-.07-.72-.11-1.79-.34-9.78-1.86-11.02-2.09-.11-.02-.22-.03-.33-.02-.36.02-.72.02-1.07.02-1.87,0-3.74-.21-5.56-.62-.11-.03-.23-.04-.35-.04h-2.07c-.96,0-2.49-.25-3.43-.48-.1-.02-.2-.03-.41-.03-.39,0-.78.03-1.19.05l-.7.04c-.14,0-.31.01-.51.01-.45,0-1.16-.02-3.07-.18l-20.88-1.91c-.06,0-.12-.01-.18-.03-.7-.14-1.41-.28-2.15-.41-.62-.09-1.25-.17-1.88-.25l-4.12-.41-1.7-.13c-.5-.04-.99-.06-1.49-.09-.37-.02-.74-.03-1.11-.06-.47-.02-.94-.05-1.41-.07,0,0-.42-.02-.45-.03-.03,0-2.6.14-2.97.16-.5.02-.99.04-1.51.09l-1.68.13-4.12.41c-.64.08-1.27.16-1.88.25-.76.13-1.51.28-2.22.42-.82.17-1.64.28-2.35.37l-1.78.26c-.3.05-.59.1-.86.16-.58.13-1.17.19-1.76.19-.48,0-.96-.04-1.44-.13-.16-.03-.32-.04-.48-.03-.37.04-.73.1-1.11.2-.3.08-.6.14-.89.19-.26.04-.52.07-.78.09l-15.02.71c-.21,0-.31,0-.41.03-.94.23-2.47.48-3.43.48h-2.06c-.12,0-.23.01-.35.04-1.82.41-3.69.62-5.56.62-.35,0-.71,0-1.06-.02-.12,0-.24,0-.35.02-1.27.24-9.24,1.76-11.02,2.09-.24.04-.47.07-.71.11-3.25.38-6.56,1.14-10.04,2.12-.68.19-1.17.78-1.25,1.49-.33,3.01-1.2,11.09-1.6,14.82-.11,1.03.69,1.93,1.72,1.93l4.49-.07,2.25-.04,2.27-.07c5.75-.16,11.68-.5,17.61-1.03l24.21-1.42h.11c3.97,0,11.26.7,12.41,2.36.22.27.44.56.64.87,1.32,2.07,1.92,4.89,1.64,7.67l-.71,6.99c-.01.13,0,.27,0,.4.4,2.94.06,5.46-.16,7.02-.03.24-.08.55-.1.73.01.45,0,.9-.03,1.35l-1.02,14.31c0,.23.02.46.01.71,0,.17.01.32.04.55.15,1.14.17,2.29.08,3.44l-.11,1.46c-.01.13-.01.16-.01.2-.04,2.68-.08,5.37-.14,8.05-.08,3.44-.23,5.6-.53,7.28-.01.66-.06,1.6-.24,2.7-.02.1-.02.2-.02.29,0,1.13.04,2.31.14,3.42.12,1.41.06,2.83-.17,4.2-.02.11-.03.23-.02.34l2.11,43.68c.05.16.09.32.13.49,0,0,.16.66.22.93.06.1.12.21.18.32.33.61.68,1.18,1.06,1.74.23.35.45.72.64,1.11,1.28,2.09,2.95,3.94,4.85,5.39,1.38,1.05,2.88,1.9,4.48,2.53.4.16.86.16,1.26,0,1.6-.64,3.1-1.48,4.48-2.53,1.89-1.44,3.56-3.3,4.85-5.38.19-.4.41-.77.64-1.12.38-.57.73-1.14,1.07-1.75.06-.11.12-.21.18-.32v-.05c.06-.24.22-.91.22-.91.04-.15.08-.3.12-.45l1.13-69.94v-.17l-.12-1.52c-.09-1.13-.07-2.28.07-3.41,0-.04.01-.09.02-.13.02-.14.03-.29.03-.46,0-.24,0-.48.02-.7l-1.02-14.31c-.03-.45-.04-.9-.03-1.35-.02-.19-.06-.49-.1-.73-.21-1.56-.56-4.08-.16-7.02.02-.13.02-.27,0-.4l-.71-7c-.28-2.78.32-5.59,1.64-7.67.2-.31.41-.6.64-.87,1.16-1.67,8.51-2.36,12.47-2.36,2.35,0,5.51.38,8.87.79.06,0,.12,0,.18,0l9,.16c.18,0,.37,0,.55.02,1.94.13,3.84.27,5.66.44,5.95.53,11.88.87,17.65,1.03l2.25.07,1.58.03,5.15.08c1.03,0,1.83-.9,1.72-1.94h.03Z"/>
  <path class="st0" d="M143.21,192.46l5.34-1.44-.43-2.85-1.46-16.15c-3.99-.28-13.69.33-17.63,1.1-.15.06-.3.11-.45.17-.2,0-.39.02-.59.03-.27.05-.55.1-.82.14-2.34.39-4.75.46-7.15.37-.03.02-.07.05-.1.08-2.14.22-4.26.49-6.33.83l-19.63-.64c0-1.52,1.56-4.12,1.55-5.87-.01-1.17-.02-2.33-.04-3.49-.03-1.16-.06-2.31-.09-3.44-.01-.5-.03-.99-.05-1.48.16-1.68.3-3.36.42-5.01.21-2.98.32-5.9.33-8.66,0-1.67.15-3.9.19-5.99.05-2.09,0-4.04-.3-5.15.01,1.11.02,2.23.02,3.34-.3-2.94-.12-5.88-.25-8.82.1.1.21.24.3.24l1.48-21.44c.12-2.04.23-4.06.31-6.04.35-7.45,1.81-16.34,2.3-23.7l.42-12.72s-.06,0-.1-.01c.22-1.65.42-3.29.75-4.93.76-3.72,1.12-7.51,1.38-11.3l4.96-10.76c1.51-.77,18.64-1.97,20.24-2.83l20.43-.41c.27.02.75,0,1.45-.04l6.2-.79.41-2.97c-.14-.19-.24-.41-.29-.64l-.15-5.6c-.67-1.91-1.42-3.77-2.25-5.6l-.61-.65c0-.1-.1-.18-.2-.17h-2.07c-.14.02-.27-.03-.39-.1l-2.88-1.13c-.72-.48-1.9-.61-3.54-.38l-1.86-.05-8.03-.2-1.95.18-3.84-.18c-3,.32-5.86.57-8.92.45-6.65,1.9-13.36,3.5-20.32,4.76-4.52.82-9.05,1.61-13.58,2.41-2.25,10.53-6.57,21.63-3.93,31.49l-.86,24.34-2.44,47.31c.1.56.07,1.09-.14,1.58l-.37,12.28c-.02.18-.04.48-.06.66l-.1,35.85c1.02,7.42.98,14.7.75,22,.21,1.68-.12,6.58-.14,8.49.08,2.12.16,4.25.26,6.37.03.73-.24,1.34-.12,2.19.24,1.68.23,3.37-.05,5.08.28.9.25,1.77-.1,2.58l.33,9.08c-.21.4-.15.78.18,1.13l-.08,3.62c0,.13.04.25.11.36l.66,8.34c.28,2.03.33,4.09.24,6.16.07.29.11.57.09.81.03.28-.03.54-.18.79l.34,4.25-.11,1.92c0,.15.02.31.08.45.39,1.02.44,2.09.14,3.23.03.95.63,2.05.29,2.96-.03.07-.04.15-.03.23l.62,7.45,1.14,17.87c.24,1.03.36,2.15.38,3.37l.07.72.15.64.24,2.36c.21,1.31.2,2.71-.02,4.18-.01.11-.03.24-.06.37l1.08,4.83c-.12.47-.09,1.03.1,1.69l.47,2.59c-.09,1.4-.1,2.46-.03,3.19l-.14,8.26c-.03,1.59,1.26,2.88,2.83,2.84l21.15-.54c.1-.07.15-.2.11-.32-.3-.94-.45-1.95-.45-3.01v-.07l-.75-3.74c0-.07-.01-.15-.02-.23.11-2.85.05-4.84-.19-5.95-.17-.8-1.01-2.08-.51-3.21.04-.1.06-.21.05-.31-.02-.33-.15-.63-.4-.9-.19-.53-.13-1.01.17-1.42.05-.06.07-.13.07-.21,0-.29-.18-.59-.55-.88-.36-1.42-.38-2.93-.06-4.53.05-.25.04-.52-.03-.77-.41-1.44-.61-2.92-.58-4.43,0-.05-.01-.14-.02-.2l-.95-4.5s0-.11-.01-.16l.17-2.44-.81-1.34c-.08-.13-.11-.27-.11-.42.11-2.82-.16-5.59-.81-8.32-.01-.08-.02-.17-.03-.25l-.04-3.17c-.01-.11-.02-.23-.03-.34-.18-.96-.3-1.97-.34-3.01l-5.04-31.55c-.27-1.74-.53-3.47-.8-5.21,0-3.93-.05-7.96-.31-11.77-.18-3.08.07-6.59.17-9.92.17-1.53.38-3.08.61-4.64.22-1.53-1.3-6.38-1.11-7.7.18-1.32.36-2.61.47-3.84.02-.29.08-.6.14-.94.22.06.48.12.81.17l11.76-1.45c.26-.05.53-.1.8-.15.09.04.26.06.51.05,3.29-.26,6.61-.59,9.93-.97"/>
  <path class="st0" d="M318.49,603.78c.09-3.13.05-6.25-.12-9.35l1.18-182.89c-.77-3.1-1.12-6.25-1.07-9.44.03-1.56-.32-3.02-.18-4.54.26-2.67-.54-4.99-1-7.56-.03-.16-.09-.3-.18-.43l-.32-2.72c-.06-.19-.14-.38-.2-.58-1.35-4.18-1.46-9.22-3.47-13.09-.23-.44-.34-.86-.4-1.28-.04-.06-.07-.12-.11-.18-.3-.42-.6-.81-.92-1.19-.16-.19-.31-.36-.46-.53s-.3-.34-.46-.51c-.62-.67-1.27-1.3-1.94-1.91-.38-.34-.79-.66-1.18-.98l-18.02.16c-.47,0-.65.27-.54.84.02.14.06.29.09.43.17.41.27.86.29,1.39l2.51,11.4c.36,1.21.45,2.36.87,3.59l1.65,23.93-.06,2.81.22,2.58c.13.39.18.74.19,1.08.19.66.23,1.38.14,2.12-.08.66-.18,1.31-.27,1.96.06.46.09.92.08,1.39-.03.78-.03,1.32-.01,1.6.24,3.53.33,5.79.28,6.77-.12,2.59-.13,4.43-.06,5.52.01.16,0,.32-.02.48-.13.87-.1,1.74.08,2.61l.04,5.44.04,1.76c.33,3,.36,6.02.09,9.08l.51,12.03c.29,4.26.42,8.51.37,12.74l-.05,5.55-5.09.3c-.08,0-.17,0-.25-.04-1.79-.67-3.05-.13-4.7.16-.63.11-1.33.11-2.1,0-1.66-.23-3.04-.34-4.14-.33-3.59.06-7.19.08-10.79.07-.78,0-1.55-.17-2.31-.32-.09-.02-.18-.03-.28-.03l-46.66-.02c-3.94-.46-7.47-.64-10.58-.53-.42-1.07-.5-2.58-.24-4.56.12-.93.08-2.05-.14-3.33-.14-.86-.2-1.73-.18-2.62.03-.93,0-1.86-.12-2.79v-.15l.05-11.7c0-.06.02-.13.02-.2v-19.83l-1.82-49.8c-.1-.94-.03-1.94.2-3-.03-.65-.06-1.31-.08-1.96-.02-.85.06-1.64.2-2.38-.1-.25-.19-.51-.23-.79l.94-15.21c.12-1.55.16-3.17.05-4.82l1.11-1.97c-.03-.17.14-.29.28-.21l-1.88-13.92c-.05-.05-.1-.12-.14-.19l-1.22-2.01c-1.39.57-2.78,1.14-4.17,1.72-5.1,2.11-7.29,3.77-12.28,6.13-3.83,8.23-6.49,17.19-7.87,26.35l-.27,1.89-.23,1.89c-.15,1.27-.26,2.59-.31,3.94s-.02,2.74.14,4.16.45,2.87.98,4.3l-.88,59.84c.13,1.18-.11,2.5-.14,3.34-.06,1.5-.12,3.01-.19,4.51.12.27.12.63,0,1.09l.04,3.05c0,.08,0,.17-.03.25l-.24,1.2v.07l.05,7.56c.31,2.57.36,5.17.15,7.8,0,.06,0,.12-.03.18l5.8,125.62.12,1.6.72,5.9c.02.57.09,1.15.22,1.72.14.64.21,1.21.2,1.72-.07,2.76.24,5.46.93,8.12,0,.05.02.11.02.17l.07,3.66v.08l.79,6.92c0,.31.33.5.58.34l20.47,3.45c.29.13.77.23.84-.21l-.82-17.9c.13-.76.05-2.61-.26-5.56-.08-.77-.09-2.11-.02-4.02.29-2.9.23-5.87-.2-8.91-.04-2.03-.14-4.06-.29-6.09-.05-.62.02-1.45.21-2.48.13-.75.18-1.51.12-2.27-.19-2.59-.22-5.17-.09-7.76.12-2.26-.06-4.2-.27-6.34-.03-.31-.03-.61,0-.92.13-1.59.09-3.16-.13-4.72l-.13-32.02c.04-4.16.04-7.92.23-12.46.12-3.14.11-5.36-.05-6.65-.17-1.35-.29-12.06-.37-13.41l40.86-3.17c1.74.02,3.49,0,5.24-.06l19.29.21,1.93.21c4.78.27,8.88.88,14.28,1.24,1.55.1,3.15.57,4.82,1.41.13.06.23.19.27.34,1.28,4.88,1.09,9.6,1.24,14.42.06.45.03.87-.09,1.25v1.16l-.16,3.16.33,4.25.13,14.86v.04l-.41,2.1c-.03.14-.04.29-.04.44.02,2.81-.16,5.64-.54,8.49,0,.06-.01.12,0,.19l.05,1.84s0,.06-.01.1l-1.96,62.38c-.72,3.46-.54,6.7-.87,9.95-.05.46-.07,1.26-.07,2.4,0,.82-.1,1.61-.31,2.37l-.09.22c.19.02.39.03.59.03l23.58-.72c.04-.06.06-.12.02-.2-.17-.12-.35-.24-.53-.35l-.13-2.88c.03-2.51.41-4.95,1.16-7.33,0-.02.01-.05.01-.07l.87-9.69v-.15c-.36-1.3-.13-2.89.02-4.39.07-.7.06-1.4-.02-2.1-.26-2.21-.36-4.43-.3-6.67l-.06-.03Z"/>
  <g>
    <path class="st0" d="M178.97,65.69l2.5,28.31v.1l-.07,2.59c0,.12,0,.25.04.37l.52,1.91s0,.06,0,.1l.32,4.15v.18c-.14.82-.16,1.6-.07,2.32.44,1.13.56,2.54.35,4.21-.06.45.07,1.34.38,2.66.29.78.39,1.7.31,2.75.43,1.88.68,3.78.72,5.69,0,.53.07,1.17.16,1.91.08.63.12,1.27.11,1.92.02.04.04.09.06.13.12.14.18.37.17.68-.04,1.12-.11,2.23-.2,3.35,0,.11,0,.22,0,.33l.34,1.86c-.17.72-.17,1.21,0,1.47.43.66.56,1.37.38,2.15-.29,1.26-.32,2.59-.12,3.98.24,1.59.36,2.41.36,2.44l.33,19.35c.31.86.43,1.73.37,2.6.11.57.11,1.12,0,1.64-.19.8-.17,1.5.06,2.09l-.07,3.04c.11,1.67-.49,3.51-.11,5.43.16.82-.06,1.49.08,2.32l.13,6.56c0,.14,0,.28-.04.42-.28,1.23-.42,2.5-.42,3.83l.97,15.04c-.21,2.55-.19,5.09.07,7.6.02.17,0,.33-.03.49-.11.47-.15.95-.11,1.42.04.4,0,.85-.11,1.34-.11.49-.1.99.05,1.49.02.08.04.17.04.25.11,1.92.25,3.84.39,5.75.07.82.04,1.8-.08,2.91-.11,1.03-.15,2-.11,2.91.04,1.04.04,2.08,0,3.12,0,.1,0,.18.05.27.05.95.12,1.9.22,2.85l.11,10.3.05,1.39-.15,2.26c-.02.88-.08,1.76-.18,2.66-.12,1.1-.18,1.99-.18,2.66,0,1.92.06,3.85.17,5.77.07,1.28-.11,3.54-.56,6.77l.04,3.73c0,.11,0,.23-.03.34l-.46,2.36v.79l.09.61v1.95l-.07,8.62c.08,1.57-.12,3.1-.61,4.59-.06.15-.08.34-.09.58v.76c.06.33.07.64.02.94l-.24,3.38.08.91.04.75.05,3.29.24,1.4-.17,1.24c.15,0,.22.09.2.25-.38,3.08-.48,6.19-.29,9.34,0,.15,0,.29-.02.44-.13.86-.19,1.72-.19,2.58v1.01l.87.97c1.48,1.6,3.11,3.05,4.85,4.33,2.26,1.67,6.73,3.07,9.25,4.21,2.3,1.04,4.67,1.87,7.07,2.51l1.2-5.6c-.06-.02-.12-.04-.19-.05v-.04l.16-10.79c-.03-.08-.05-.16-.06-.24l-.56-6.08c.11-.32.13-.64.08-.98.03-.15,0-.3-.05-.45-.18-.92-.19-1.84-.04-2.75.02-.15.03-.29,0-.44-.22-2.09-.33-3.47-.32-4.13,0-1.75-.15-3.46-.5-5.14.19-.57.21-1.19.07-1.86-.25-1.22-.74-2.71-.22-3.93.16-.38.11-1.03-.16-1.95-.03-.11-.05-.22-.05-.32l-.06-4.37-.36-6.31-.4-4.83c-.32-2.2-.92-4.08-.45-6.47,0-.08.02-.16,0-.24l-.94-10.95c.08-.34.09-.7.03-1.05l-.91-5.07c-.04-.22-.06-.43-.06-.64,0-1.35-.18-2.65-.52-3.9-.04-.14-.06-.29-.06-.45,0-1.69-.2-3.36-.58-5-.04-.15-.06-.3-.06-.45-.08-1.59-.29-3.16-.63-4.71-.02-.08,0-.16.02-.23v-4.58c-.1-2.81-.27-5.41-.51-7.81-.07-.66-.32-1.23-.34-1.86-.04-1.13-.12-2.26-.23-3.39-.12-1.22.13-2.68-.12-4.07-.03-.15-.04-.3-.02-.45.08-.95.08-2.44,0-4.48-.04-.96.06-2.69.29-5.2,0-.15,0-.3,0-.44-.21-1.45-.19-2.9.05-4.35.02-.11.02-.23,0-.34l-.43-3.2c-.08-.42-.07-.8.03-1.15,0-1.46.02-2.92.03-4.38,0-1.02.06-2.05.15-3.07.1-1.07.11-2.09.02-3.05-.09-1.03-.16-2.07-.2-3.11,0-.11.03-.23.1-.32.24-.31.32-.69.23-1.13-.43-2.37.05-4.62.02-6.91,0-.1-.02-.19-.04-.28-.21-.84-.23-2-.09-3.49.1-.97-.04-2.48-.43-4.52,0-.08-.02-.16,0-.24l.28-2.84c.04-.34,0-.68-.06-1-.32-1.38-.44-2.78-.37-4.21.08-1.75.11-2.94.08-3.56-.07-1.82-.07-3.65,0-5.47l-.18-1.94c-.09-3.34-.19-6.71-.31-10.1-.03-.72.19-1.91.65-3.55-.03-2.91.05-5.82.26-8.74.1-1.41,0-2.66-.11-4.03-.04-.5,0-1,.07-1.5.11-.68.23-1.37.36-2.04.34-1.77.31-3.52.31-5.31,0-.32.4-.44.56-.17l2.26,3.84c.09.16.17.33.24.5l2.23,5.95,7.04,16.21,6.67,17.52c.65,1.27,1.13,2.59,1.43,3.94l9.49,22.59,2.41,5.88s.04.08.07.11c.71.89.68,1.97,1.07,2.89.34.81.61,1.64.81,2.5.02.1.05.18.1.27l1.1,2.19c.29.46.49.9.58,1.34.7,1.4,1.18,2.85,1.44,4.36l.41.89c.31.43.51,1.04.59,1.83l.36.5,1.83,4.51c.05.12.12.23.21.31.61.57,1.09,1.24,1.44,1.98.62,1.33,1.15,2.69,1.58,4.07.44,1.4,1.3,3.39,1.57,5.23l12,28.34c.5,1.93.9,3.18,1.19,3.76.64,1.27,1.01,2.1,1.12,2.5l1.32,2.73c.25.82.64,1.59,1.16,2.31.08.12.14.26.16.4.22,1.81.52,2.94.89,3.4.65.8,1.07,1.48,1.26,2.05.26.8.48,1.21.66,1.24.36,1.98.92,3.62,1.67,4.89l3.69,10.19c.61.54,1.04,1.29,1.29,2.24.24.18.42.5.52.96l.99,2.29,9.2,22.77,1.01,1.74c.21.24.38.52.5.85.5,1.36.95,2.73,1.35,4.11.31,1.46.74,2.49,1.3,3.1.43.46.64.9.64,1.32l.5.89c.28.82.71,1.54,1.29,2.17.1.11.15.25.16.4l5.79,5.29c.46.24.93.47,1.4.7,2.37,1.15,4.84,2.07,7.35,2.81,5.03,1.49,7.49,2.16,12.61,2.17.59-.1.29-.35.3-.59l-1.99-5.03c.03-.07.06-.14.07-.21-.04,0-.08-.01-.12-.02.08-.15.21-.36.08-.51-.05,0-.11-.01-.17-.02.04-.22.01-.48-.07-.78-.11-.42-.22-.82-.31-1.22.06,0,.1-.03.1-.09.03-.24.06-.48-.01-.71-.05-.16-.16-.33-.34-.49-.1-.65-.18-1.28-.21-1.88v-.03l-1.4-7.94.14-2.14-.37-4.63v-.06c.15-1.79-.03-3.53-.54-5.23-.04-.12-.06-.25-.06-.38l-.1-3.85s0-.09-.02-.13c-.27-1.08-.4-2-.4-2.77.01-1.65.02-2.49.02-2.52-.07-1.35-.07-2.7-.03-4.06,0-.27,0-.55-.06-.82-.25-1.39-.27-2.79-.07-4.19l-.5-5.09-.19-4.58c0-.09-.03-.17-.06-.26l-.25-.63c-.03-.06-.04-.12-.04-.19v-2.26l-.11-5.16c0-.07-.02-.14-.04-.2-.65-1.76-.85-3.56-.6-5.42.03-.2.03-.4.01-.6l-1.26-13.97c-.35-.42-.37-1.07-.06-1.96l-.41-3.85c-.01-.12,0-.24,0-.36.14-.85.07-1.67-.2-2.48-.04-.13-.07-.27-.08-.41l-.26-10.63h.01c.06-.06.09-.12.08-.2,0-.11-.05-.18-.11-.23l-.17-7.12-.03-2.63.24-9.96c.13-1.05-.19-2.08-.22-2.97-.02-.73-.07-1.46-.13-2.19-.12-1.44.17-2.83.13-4.3l-.04-10.7c.08-.61.14-1.26.14-1.87-.02-2.23-.04-4.46-.05-6.69v-1.03c-.01-.85,0-1.7.07-2.55.06-.9.07-1.74.04-2.54-.08-1.76-.07-3.51.03-5.27.13-2.11-.26-4.34,0-6.58v-.06l-.15-10.5.4-2.52c.02-.14.02-.28,0-.42l-.35-2.21c-.11-.76-.19-1.52-.25-2.28v3.55l-.02-3.87c0,.11.01.22.02.33v-5.45.15c-.02.25-.03.49-.04.74l-.17-51.21v-.08l-.32-6.28v-.12l.36-7.1c0-.06,0-.11-.03-.16l-.22-4.73c-.02-.66-.07-1.33-.12-1.99,1.49-3.48,2.87-7.18,3.78-10.79.96-3.64,2.83-7.79,3.51-11.48.11-.56.39-1.25.61-1.92l2.62-11.81-1.61-4.91-20.83-6.32c-1.61,4.07-2.83,8.29-3.83,12.53-.5,2.12-.94,4.25-1.35,6.38s-.79,4.26-1.13,6.41c-.68,4.31-1.22,8.63-1.53,13.02-.04.57-.07,1.15-.09,1.73l-.08,3.73.05,2.04c.07,3.48.08,6.72.05,9.71-.1.55-.19,1.1-.27,1.65l-.13,1.01,1.93,53.15c.24.59.34,1.24.3,1.95-.02,1.24.08,2.55.31,3.94,0,.05.01.09.01.14l.04,2.39c.07.51.14,1.02.23,1.53.07.39.06.9-.02,1.52-.06.5-.04.99.05,1.49.12.61.16,1.1.14,1.47-.11,1.48-.14,2.96-.09,4.44v.07l-.16,1.54c.05.12.12.19.21.18l.11,5.65c-.02.95-.07,1.85-.17,2.69-.07.55-.02,1.08.13,1.59l.16,3.21c0,.09-.01.18-.05.27l-.08.18c.05.16.02.36-.1.59.29.46.42.98.36,1.57.04.06.03.26-.02.57-.18,1.26-.13,2.53.16,3.8l.22,5.74,1.68,50.51.02,1.75c.26,1.43.18,2.93-.24,4.48l.16,1.15.24.91.22,5.53-.04.8c.2.24.23.51.1.79-.29,1.19.04,2.15-.01,3.31l.23,1.22.09.94.1,3.48c0,.06,0,.11-.01.17-.17.86-.24,1.72-.21,2.58.13.32.13.66,0,1.02l.21,3.02.4,8.05c.02.08.03.16.02.23l-.18,5.93.43,3.51v.11l.08,4.03s0,.03-.02.03h0c-.09,0-.18-.05-.22-.14-1.18-3.28-1.93-5.2-2.26-5.76-.62-1.06-1.16-2-1.62-2.83-.15-.27-.26-.56-.35-.85-.3-1.12-.7-2.2-1.18-3.24-1.93-4.18-3.43-7.56-4.51-10.13-.96-2.28-2-4.37-3.14-6.27-.07-.13-.13-.28-.16-.43-.34-1.87-.86-3.57-1.55-5.11l-7.18-18.89c-.6-1.73-1.61-4.03-3.03-6.92-.61-1.24-.9-2.28-1.19-3.57-.33-1.43-1.11-2.7-1.53-4.13-.31-1.06-.65-1.97-1-2.71-.83-1.74-1.55-3.54-2.15-5.38-.11-.29-.13-.52-.08-.69-.92-1.44-1.59-2.91-2.01-4.41-.22-.79-.68-1.43-.94-2.22-.02-.05-.22-.53-.61-1.44l-6.12-16.09c-.4-1.28-.83-2.32-1.29-3.1-.05-.08-.08-.17-.11-.25l-1.82-5.22-20.76-51.59s-.42-1.19-1.24-3.52c-.53-1.5-1.3-3.27-2.34-5.31-.22-.44-.54-1.36-.95-2.77-.5-1.69-1.2-3.09-1.89-4.68-.66-1.52-.97-3.21-1.44-4.83-.25-.89-.59-1.8-1.02-2.73-.96-2.12-1.91-4.24-2.85-6.36-.69-1.56-1.1-3.27-1.68-4.93-.17-.49-.39-.95-.65-1.38-.76-1.23-1.39-2.25-1.88-3.67-2.58-7.4-4.63-13-6.15-16.81-.65-1.63-1.84-4.11-3.56-7.44-.07-.13-.11-.28-.14-.42-.29-1.61-1.17-2.83-1.62-4.35-.03-.11-.05-.22-.04-.34l-.9-1.7-12.87-.52"/>
    <path class="st0" d="M307.45,122.75l.36-2.94-.44-25.72-.07,34.27.14-5.51v-.1h.01Z"/>
  </g>
  <path class="st0" d="M150.2,370.35l-2.26-10.3c-.43-1.96-2.07-3.48-4.14-3.81-.02,0-.04,0-.06-.01-.92-.15-1.84-.25-2.77-.29l-21.34-1.01c-.12,0-.24-.02-.36-.03l-26.03-3.04c-.16-.02-.31-.05-.47-.08-2.65-.6-5.39-.86-8.22-.78-.15,0-.31,0-.46-.01l-5.95-.45s-.03,0-.05-.01l-8.4-.03c-.07,0-.14,0-.21-.03l-32.5,1.6s.02.07.03.1l-15.38,5.43-8.04,2.81c-1.06.5-1.93,1.19-2.61,2.07-.26.33-.43.72-.57,1.11l-.59,1.63-.14.67-.12,1.4c-.04.46-.03.92.07,1.38.04.19.08.39.11.58.08.51.18.89.28,1.16.47,1.24,1.12,2.2,1.96,2.89.29.24.58.49.87.73l1.68,1.47s.09.08.13.12c.27.18.52.27.75.28,1.04.2,2.06.43,3.07.68.44.11.88.16,1.33.15l23.29-.37c.24,0,.49,0,.72.04,1.45.17,2.34.28,2.69.32.12.01.23.02.34.03l19.08,1.02c.44.02.88.1,1.31.24l5.86,1.84c.23-.14.54.04.46.27l1.75,14.09c.04.32.06.64.04.95l-3.49,82.04c.03.12.04.23.05.36l.05,1.76c0,.15.05.3.13.39l2.92,11.37c.02.11.07.2.12.28.67.96,1.2,2.09,1.59,3.39.02.07,2.84,1.34,4.06,1.91.39.18.79.3,1.21.38l4.2.74c.31-.02.61-.06.91-.13,1.04-.23,2.03-.68,2.96-1.31.41-.27.81-.6,1.21-.94.1-.08.2-.17.29-.26l.51-.49c.22-.2.41-.45.62-.68.81-.95,1.57-2.02,2.24-3.23.62-1.12,1.17-2.35,1.64-3.66.07-.21.14-.42.19-.63l1.21-5.08c.05-.33.09-.65.12-.98.21-.38.41-.78.51-1.17-.04-.05-.11-.13-.18-.2l.8-47.95c0-.18,0-.37-.02-.55-.17-1.94-.33-3.89-.49-5.84-.02-.21-.02-.42-.02-.63l.53-16.63c0-.18,0-.36-.01-.54-.31-4.43.72-5.96.6-9.96-.02-.68-.19-12,.11-12.88.5-1.47.97-2.52,1.47-3.99.36-1.03,2.93-1.47,4.27-1.64.18-.02.36-.04.54-.04l33.23-1.1c1.2-.18,2.41-.36,3.61-.55l2.21-.35.66-.1c.37-.06.73-.13,1.07-.23.69-.2,1.32-.52,1.82-.95.41-.37.73-.8.94-1.28.11-.24.19-.49.25-.74.03-.13.06-.25.08-.38l.06-.33c.02-.17.06-.33.07-.5l.03-.5c.03-.33,0-.66,0-.99l-.02-.02Z"/>
  <path class="st0" d="M146.64,511.54l-1.03-2.39c-.24-.41-.48-.81-.72-1.22l-1.98-2.53c-.25-.31-.47-.65-.68-.99l-.41-.69c-.27-.45-.63-.85-1.07-1.12-.34-.21-.65-.35-.95-.41-.32-.07-.88-.15-1.76-.15-.58,0-1.23.04-1.96.11-.29.03-.58.1-.85.21l-2.45.98c-.11.12-.23.25-.34.38-.06.07-.13.14-.19.2l-12,14.31h0c-.6.64-.97,1.48-.98,2.37l-5.44,74.22c-.21.03-.42.05-.63.05-2.14,0-4.07-1.68-4.67-4.18l-16.34-54.86c-.13-.48-.22-.98-.25-1.5l-1.97-8.01c-.06-.12-.13-.27-.19-.4-.1-.24-.19-.49-.26-.75-.33-1.19-.6-2.24-.82-3.27-.24-1.16-.53-2.28-.86-3.37-.33-1.09-1.17-1.93-2.23-2.24l-1.84-.53c-.57-.16-1.17-.16-1.74,0l-1.84.53c-1.06.31-1.9,1.15-2.23,2.24-.33,1.1-.63,2.24-.88,3.43-.21.97-.48,2.02-.81,3.21-.07.26-.16.51-.26.75-.04.1-.1.22-.14.32l-2.01,8.09c-.03.45-.11.93-.22,1.38l-21.04,59.16c-.21,0-.42-.02-.63-.05l-5.46-75.58c0-.76-.27-1.5-.74-2.09l-.65-.82-3.83-4.36c-.17-.34-.38-.65-.64-.92l-7.12-7.15c-.07-.07-.13-.13-.19-.2-.11-.13-.23-.25-.34-.38l-2.44-.98c-.27-.11-.57-.18-.86-.21-.71-.07-1.37-.11-1.96-.11-.88,0-1.44.08-1.75.15-.3.07-.62.2-.96.41-.44.27-.8.67-1.07,1.12l-.4.68c-.2.35-.43.68-.68.99l-1.94,2.49-.78,1.32-1,2.33c-.28.66-.34,1.39-.21,2.09l1.44,9.28c0,.1.01.19.02.29l11.45,83.55c.01.1.03.21.06.31l6.29,27.42c.29,1.27,1.26,2.26,2.48,2.53l19.69,1.33s.06-.02.09-.04c.29-.12.58-.26.86-.41l.17-.09c.1-.04.19-.1.33-.18l.64-.36c.49-.33.96-.66,1.44-1l.36-.25.39-.29,18.25-59.07,18.25,59.07.39.29.36.25c.48.34.95.67,1.44,1l.68.39c.09.06.19.11.36.19l.1.05c.29.14.57.29.86.41.03.01.06.02.09.04l20.63-1.38c1.29-.26,2.29-1.31,2.55-2.65l5.29-27.3c0-.06.02-.13.03-.19l11.46-83.61c0-.1.02-.19.02-.29l1.44-9.28c.12-.71.07-1.44-.21-2.09v.02Z"/>
  <path class="st0" d="M474.78,142.34l-.02-.96c-.22-7.14-.75-14-1.56-20.39-.87-6.84-2.12-13.75-3.6-19.95-.21-.9-.43-1.94-.66-3.06,0-.02-.42-2.01-.5-2.42-.19-.93-.33-1.88-.39-2.83-.21-3-.62-6-1.22-8.93-.81-3.95-1.98-7.84-3.48-11.54-.36-.88-.65-1.8-.88-2.73-.88-3.57-1.87-7.1-3.23-10.49l-.16-.41c-.02-.06-.05-.12-.08-.18l-5.58-11.99c-.29-.63-.58-1.28-.88-1.99l-.1-.23c-.65-1.51-1.39-3.23-2.35-4.95-.87-1.53-1.76-3.83-2.73-4.89-1.05-1.16-2.25-2.18-3.57-3.04l-5.82-4.73c-.32-.15-.65-.29-.99-.43l-7.2-3.46c-.22-.19-6.37-1.38-6.62-1.5-.65-.3-1.69-.6-4.53-.6-3.02,0-6.78.36-11.19,1.07-.04,0-.07.01-.11.02-.25.05-.57.15-1.38.47-1.36.54-2.8.87-4.25,1.01-.19.02-.38.04-.59.07-.23.03-.45.09-.63.16l-7.8,2.79c-.1.04-.19.08-.29.12-2.45,1.2-4.87,2.53-7.2,3.95-1.35.83-2.74,1.74-4.14,2.71-.19.14-.39.27-.56.38-5.42,3.45-10.31,7.42-14.54,11.8-4.73,4.9-8.71,10.41-11.82,16.38-.05.1-.13.27-.17.39-.04.11-.09.22-.12.34l-5.98,19.89c-.08.27-.13.56-.15.85-.04.68-.18,1.35-.32,2.02-.29,1.37-.57,2.84-.8,4.15l-.18,1.07c-.12.81-1.05,7.04-1.06,7.07-.21,1.59-.41,3.18-.6,4.77-.21,1.78-.42,3.55-.62,5.33l-.02.22c-.27,2.35-.53,4.68-.82,7-.44,3.59-.96,7.26-1.47,10.8l-.24,1.68c-1.26,8.87-2.34,16.89-2.65,25.2-.02.66-.08,1.33-.17,1.99-.49,3.62-.85,7.28-1.06,10.87-.4,6.76-.32,13.53.23,20.13.01.17.03.34.03.45.04.68.11,1.32.19,1.97l.24,2.24c.05.48.09.95.1,1.41.18,4.6.54,9.15,1.06,13.48.13,1.17.3,2.35.45,3.46l.17,1.2.59,3.61.22,1.22c.19,1.05.39,2.1.62,3.19.32,1.53.46,3.11.44,4.68-.02,1.1,0,2.2.04,3.24.11,2.6.46,5.26,1.04,7.9.02.07.03.15.06.22,0,0,5.91,20.83,5.93,20.87.14.5.26,1.01.35,1.53.41,2.13.94,4.12,1.58,5.93.58,1.64,1.27,3.24,2.06,4.74.36.69.69,1.42.97,2.16.24.64.49,1.28.74,1.92.02.04,4.32,9.88,4.32,9.88.08.18.15.36.23.56l3.97,9.86c.24.62.48,1.24.74,1.87,1.46,3.63,2.86,6.5,4.41,9.01l.19.32c.12.19.24.39.37.6.02.03.84,1.22.84,1.22.37.55.76,1.03,1.18,1.55l.34.42c.31.39.63.74.97,1.1l.21.24c.17.19.34.38.58.62l1.15,1.13.67.61c2.3,2.04,4.94,3.9,7.84,5.53.05.02.09.05.14.07l16.04,7.69c.3.14.61.23.93.26l.32.04,7.63.97,3.02.16c1.37.07,3.48-.43,4.69-1.12h.01l15.35-8.5c.28-.16.54-.36.77-.6l8.77-9.52c.16-.17.29-.36.41-.55l2.58-2.16c1.78-1.93,6.25-5.97,11.19-17.13l2-5.82c4.33-7.29,8.88-18.36,10.28-30.19l1.57-9.51c0-.17,2.21-9.59,2.29-14.84l.98-7.65c1.42-47.21,1.52-52.16,1.66-53.06.56-3.55.95-7.06,1.17-10.47.01-.22.16-3.2.17-3.28.02-.57.03-1.14.04-1.72l.02-1.15c.05-1.66,0-3.27-.03-4.84l-.04-.02ZM452.94,164.63c-.59,14.31-1.68,28.74-3.24,43.29-1.12,10.36-3.55,23.55-4.99,32.11-.42,2.45-2.04,8.64-4.88,18.57-3.61,12.67-9.32,22.91-17.13,30.72-7.47,7.48-18.33,10.37-26.56,4.96-16.62-10.91-26.59-35.67-30.4-59.4-2.6-16.2-4.14-32.4-4.61-48.61-.43-14.61,1.05-31.73,3.4-46.88,2.19-14.14,3.11-23.88,6.03-36.3,3.46-14.68,5.81-28.22,12.5-37.98,4.45-6.51,9.9-11.81,16.35-15.91,10.21-6.51,19.95-5.37,29.2,3.42,6.61,6.28,10.58,14.26,13.7,25.6,3.48,12.66,5.79,22.26,6.93,28.8,3.28,18.79,4.51,37.99,3.69,57.6h0Z"/>
</svg>